<?xml version="1.0" encoding="UTF-8" standalone="no"?>
<!DOCTYPE svg PUBLIC "-//W3C//DTD SVG 20010904//EN" "http://www.w3.org/TR/2001/REC-SVG-20010904/DTD/svg10.dtd">
<svg version="1.0" xmlns="http://www.w3.org/2000/svg" width="2100.000000pt" height="355.000000pt" viewBox="0 0 2100.000000 355.000000" preserveAspectRatio="xMidYMid meet">
<metadata>
Created by potrace 1.14, written by Peter Selinger 2001-2017
</metadata>
<g transform="translate(0.000000,355.000000) scale(0.100000,-0.100000)" fill="#000000" stroke="none">
<path d="M20668 3533 c-9 -10 -23 -32 -31 -49 -23 -44 -70 -82 -152 -120 l-69 -32 -62 44 c-83 59 -193 109 -301 136 -75 19 -114 23 -268 22 -151 0 -194 -3 -268 -22 -283 -71 -482 -235 -585 -485 -49 -116 -65 -213 -65 -377 0 -124 4 -159 26 -244 71 -267 261 -476 612 -673 50 -28 176 -94 280 -148 362 -185 481 -261 599 -380 93 -93 146 -177 183 -290 32 -101 37 -272 10 -373 -43 -159 -135 -276 -271 -342 -104 -51 -176 -69 -306 -76 -258 -15 -458 59 -643 235 -129 123 -234 275 -402 581 -74 134 -82 145 -111 148 -58 6 -59 -2 -20 -275 49 -336 76 -581 76 -680 0 -110 10 -135 52 -131 33 3 38 9 74 92 21 47 74 86 163 121 l67 27 82 -55 c96 -64 192 -107 329 -144 88 -25 115 -27 268 -28 231 0 367 30 550 122 348 176 534 505 512 903 -21 362 -199 624 -589 865 -51 32 -210 119 -353 193 -309 160 -417 222 -522 301 -142 107 -236 227 -276 356 -31 100 -31 263 1 357 48 139 149 236 296 285 73 24 95 27 231 26 171 0 260 -18 368 -75 87 -46 197 -155 272 -268 56 -84 146 -258 228 -443 28 -62 43 -73 83 -63 l27 7 -7 127 c-3 70 -7 280 -7 467 -1 187 -5 348 -10 358 -6 9 -20 17 -33 17 -13 0 -30 -8 -38 -17z"/>
<path d="M918 3465 c-3 -4 -3 -15 -1 -26 4 -13 41 -38 113 -74 64 -32 118 -67 134 -86 27 -32 28 -36 24 -136 -3 -95 -5 -104 -29 -129 -23 -23 -40 -28 -120 -36 -130 -13 -394 -7 -411 10 -15 15 -14 199 2 248 13 38 43 67 93 88 29 12 37 20 37 40 l0 26 -175 0 -175 0 0 -25 c0 -19 8 -28 37 -40 81 -34 101 -72 109 -207 9 -150 20 -142 -213 -146 -103 -2 -208 1 -233 5 l-45 9 -3 92 c-5 162 22 209 168 287 55 29 75 46 75 60 0 19 -7 20 -150 20 l-150 0 -3 -427 -2 -428 25 0 c20 0 25 5 25 24 0 41 20 83 48 97 22 11 118 15 477 17 248 2 479 0 514 -3 81 -9 111 -34 111 -95 0 -36 2 -40 25 -40 l25 0 -2 438 -3 437 -161 3 c-88 1 -163 0 -166 -3z"/>
<path d="M1499 3453 c-6 -6 -9 -22 -7 -35 3 -21 10 -24 75 -29 89 -8 128 -29 170 -92 63 -94 82 -151 428 -1282 103 -335 224 -731 270 -880 46 -148 138 -450 205 -670 70 -229 129 -405 138 -413 10 -8 52 -12 123 -12 88 0 110 3 126 18 14 12 52 138 138 457 115 429 175 652 275 1020 27 99 103 383 170 630 162 600 150 562 160 545 4 -8 28 -85 53 -170 25 -85 71 -240 102 -345 31 -104 78 -264 105 -355 27 -91 97 -327 155 -525 59 -198 154 -520 211 -715 152 -516 162 -547 180 -554 9 -3 62 -6 119 -6 83 0 107 3 123 18 14 11 36 69 65 167 58 194 244 810 357 1180 48 160 138 457 199 660 268 887 349 1099 470 1228 57 61 102 84 182 94 l64 8 0 35 0 35 -538 0 c-412 0 -541 -2 -548 -12 -6 -6 -9 -22 -7 -35 3 -21 10 -24 68 -29 149 -15 215 -55 267 -159 43 -86 56 -196 42 -358 -15 -173 -55 -350 -189 -832 -67 -239 -134 -482 -150 -540 -118 -426 -230 -823 -233 -827 -2 -2 -16 38 -30 89 -86 308 -165 587 -212 753 -29 105 -162 577 -295 1050 -133 473 -248 870 -256 883 -14 21 -21 22 -133 22 -84 0 -122 -4 -129 -13 -6 -7 -36 -107 -67 -222 -72 -268 -241 -900 -440 -1645 -194 -726 -225 -841 -232 -860 -3 -8 -15 21 -28 65 -12 44 -91 321 -174 615 -468 1647 -481 1695 -481 1808 0 121 46 157 222 170 l103 7 0 35 0 35 -603 0 c-466 1 -605 -2 -613 -12z"/>
<path d="M6769 3453 c-6 -7 -8 -24 -5 -38 6 -23 11 -25 59 -25 72 0 174 -18 209 -36 19 -10 37 -33 50 -62 19 -42 20 -53 10 -119 -7 -40 -28 -122 -47 -182 -29 -88 -333 -846 -685 -1706 -27 -66 -81 -199 -120 -295 -197 -480 -308 -684 -415 -763 -50 -37 -76 -47 -144 -55 -60 -8 -84 -29 -65 -60 10 -16 48 -17 549 -17 501 0 539 1 549 18 20 32 -4 51 -74 59 -113 13 -172 45 -220 118 -93 145 -76 439 46 800 57 167 93 244 117 248 10 2 60 -16 110 -41 181 -87 300 -112 527 -111 214 1 294 19 523 116 60 25 82 30 95 22 31 -20 276 -682 306 -827 48 -233 1 -307 -204 -324 l-95 -8 0 -35 0 -35 640 0 640 0 0 35 0 35 -71 6 c-39 4 -84 14 -101 22 -56 30 -113 108 -183 252 -75 155 -956 2351 -1021 2546 -31 93 -43 145 -47 210 -8 141 23 172 183 186 l90 8 0 35 0 35 -598 1 c-479 0 -600 -2 -608 -13z m723 -1160 c148 -395 275 -735 281 -755 17 -58 2 -86 -65 -120 -86 -43 -186 -76 -290 -94 -134 -23 -368 -15 -498 18 -120 31 -240 81 -271 114 -21 22 -22 28 -12 72 6 26 53 157 105 292 53 135 121 313 153 395 31 83 79 206 105 275 27 69 83 215 125 324 82 216 87 226 92 209 3 -7 126 -335 275 -730z"/>
<path d="M9238 3453 c-5 -7 -8 -22 -6 -35 3 -22 9 -23 102 -30 169 -12 217 -51 254 -210 16 -67 17 -183 17 -1398 0 -1215 -1 -1331 -17 -1398 -37 -159 -83 -198 -249 -210 l-104 -7 -3 -32 c-2 -18 0 -33 5 -34 4 0 536 -1 1182 -1 1131 -1 1174 -1 1187 17 8 10 14 28 14 39 0 23 59 603 86 847 9 86 14 164 11 173 -4 10 -18 16 -40 16 l-34 0 -83 -182 c-258 -571 -397 -740 -653 -794 -92 -20 -434 -14 -512 8 -113 33 -159 70 -199 158 -51 115 -51 113 -51 1420 0 1286 1 1315 46 1437 24 64 74 108 144 128 28 8 110 18 184 22 111 7 136 11 145 26 8 12 8 22 0 35 -10 16 -55 17 -713 17 -533 0 -705 -3 -713 -12z"/>
<path d="M11959 3454 c-6 -8 -8 -25 -5 -39 6 -23 11 -25 63 -25 216 0 276 -59 303 -300 8 -64 10 -509 8 -1375 -4 -1409 -3 -1370 -65 -1459 -41 -58 -84 -76 -202 -83 -97 -6 -102 -7 -107 -30 -4 -14 -1 -30 5 -36 9 -9 173 -12 642 -13 597 0 631 1 640 18 6 12 6 25 0 37 -8 15 -26 19 -103 24 -51 3 -106 11 -123 17 -62 23 -99 75 -122 170 -21 86 -35 506 -31 936 4 486 -5 462 183 471 335 18 460 -95 822 -742 230 -409 373 -687 438 -848 l33 -81 471 -2 c506 -1 500 -2 487 49 -5 22 -12 25 -92 31 -121 9 -186 40 -267 125 -102 109 -321 436 -552 826 -62 105 -134 219 -160 255 -71 96 -191 209 -283 264 -87 52 -234 107 -342 127 -36 7 -69 16 -74 20 -4 4 18 12 50 19 583 115 933 348 1009 672 22 92 19 258 -5 352 -89 349 -420 556 -975 611 -208 20 -1630 28 -1646 9z m1686 -118 c84 -25 169 -72 210 -117 48 -54 92 -144 118 -247 20 -79 22 -110 22 -352 -1 -242 -3 -272 -23 -344 -33 -118 -65 -180 -127 -245 -63 -66 -146 -112 -246 -136 -147 -35 -621 -46 -677 -16 -12 6 -30 24 -40 38 -16 25 -17 76 -17 693 0 723 -1 708 55 738 41 21 645 11 725 -12z"/>
<path d="M15023 3454 c-2 -7 -3 -23 -1 -36 3 -22 9 -23 103 -31 204 -15 243 -70 265 -372 5 -77 10 -508 10 -957 0 -886 3 -937 57 -1158 102 -420 349 -706 708 -823 277 -90 672 -84 927 14 187 72 351 227 452 428 15 29 31 50 36 45 4 -5 15 -108 25 -229 9 -121 21 -224 26 -229 5 -6 188 -11 440 -12 l430 -2 11 24 c17 38 -2 50 -89 57 -188 15 -260 80 -306 280 -21 90 -21 113 -25 1307 -3 1242 0 1371 35 1476 36 111 82 141 235 152 97 7 103 8 106 30 2 13 -1 29 -7 35 -8 10 -155 13 -643 12 l-633 0 0 -35 0 -35 87 -7 c117 -9 143 -15 179 -45 60 -51 85 -134 98 -331 5 -64 7 -538 6 -1052 -2 -1004 -2 -1002 -55 -1229 -24 -100 -102 -266 -157 -331 -82 -99 -213 -180 -348 -215 -161 -41 -436 -38 -596 6 -220 61 -351 204 -413 449 -48 191 -49 207 -53 1290 -4 1046 -1 1186 33 1301 34 113 84 146 242 157 92 7 97 8 100 31 2 13 -1 28 -8 35 -17 17 -1270 17 -1277 0z"/>
<path d="M13 2473 c-10 -4 -13 -65 -13 -264 l0 -259 25 0 c17 0 25 6 26 18 1 40 11 68 28 86 25 24 157 38 324 34 114 -3 130 -5 143 -22 11 -16 14 -70 14 -267 0 -219 -2 -250 -17 -264 -15 -15 -40 -17 -219 -13 -186 3 -205 5 -231 24 -20 15 -31 35 -37 67 -8 40 -13 47 -33 47 l-23 0 0 -260 0 -260 24 0 c20 0 25 6 30 44 10 64 30 77 138 88 137 14 914 5 956 -11 39 -16 52 -37 52 -85 0 -32 3 -36 25 -36 l25 0 0 260 0 260 -25 0 c-22 0 -25 -4 -25 -39 0 -87 -47 -101 -344 -101 -147 0 -207 3 -219 13 -16 11 -18 37 -18 271 0 174 4 263 11 270 7 7 92 11 253 11 300 -1 308 -4 319 -105 2 -17 10 -26 26 -28 l22 -3 0 260 0 261 -25 0 c-22 0 -25 -4 -25 -39 0 -56 -24 -79 -93 -92 -37 -6 -226 -9 -520 -7 -500 3 -510 4 -524 57 -10 36 -10 38 -12 60 -1 20 -18 31 -38 24z"/>
<path d="M5 1058 c-3 -7 -4 -238 -3 -513 l3 -500 165 0 165 0 0 25 c0 21 -10 29 -55 50 -195 88 -213 106 -218 217 -3 56 -1 78 9 84 20 12 1015 11 1060 -1 47 -13 61 -31 68 -83 5 -34 10 -43 29 -45 l22 -3 -2 263 c-3 255 -4 263 -23 263 -16 0 -21 -9 -26 -43 -3 -25 -15 -52 -28 -65 l-22 -22 -530 -3 c-411 -2 -535 0 -546 10 -12 9 -14 30 -11 91 3 79 3 80 46 117 23 21 84 56 135 78 77 35 92 45 92 64 0 23 -1 23 -163 26 -124 2 -164 0 -167 -10z"/>
</g>
</svg>